<mxfile host="app.diagrams.net" modified="2022-11-23T16:14:52.488Z" agent="5.0 (Windows NT 10.0; Win64; x64) AppleWebKit/537.36 (KHTML, like Gecko) Chrome/107.0.0.0 Safari/537.36" version="20.6.0" etag="G50C3o_qPrZchkoG7z4V" type="github">
  <diagram id="1uSY8DxyhaSJiUG7p-Ei" name="Page-1">
    <mxGraphModel dx="1422" dy="770" grid="1" gridSize="10" guides="1" tooltips="1" connect="1" arrows="1" fold="1" page="1" pageScale="1" pageWidth="850" pageHeight="1100" math="0" shadow="0">
      <root>
        <mxCell id="0" />
        <mxCell id="1" parent="0" />
        <mxCell id="XEDrrpGrRJbFMYsRgZFV-1" value="" style="edgeStyle=orthogonalEdgeStyle;rounded=0;orthogonalLoop=1;jettySize=auto;html=1;" edge="1" parent="1" source="XEDrrpGrRJbFMYsRgZFV-2" target="XEDrrpGrRJbFMYsRgZFV-4">
          <mxGeometry relative="1" as="geometry" />
        </mxCell>
        <mxCell id="XEDrrpGrRJbFMYsRgZFV-2" value="Start" style="strokeWidth=2;html=1;shape=mxgraph.flowchart.start_1;whiteSpace=wrap;" vertex="1" parent="1">
          <mxGeometry x="50" y="30" width="100" height="60" as="geometry" />
        </mxCell>
        <mxCell id="XEDrrpGrRJbFMYsRgZFV-3" value="" style="edgeStyle=orthogonalEdgeStyle;rounded=0;orthogonalLoop=1;jettySize=auto;html=1;" edge="1" parent="1" source="XEDrrpGrRJbFMYsRgZFV-4" target="XEDrrpGrRJbFMYsRgZFV-7">
          <mxGeometry relative="1" as="geometry" />
        </mxCell>
        <mxCell id="XEDrrpGrRJbFMYsRgZFV-4" value="Input &lt;br&gt;int x&lt;br&gt;int y&lt;br&gt;int z" style="shape=parallelogram;perimeter=parallelogramPerimeter;whiteSpace=wrap;html=1;fixedSize=1;strokeWidth=2;" vertex="1" parent="1">
          <mxGeometry x="40" y="130" width="120" height="60" as="geometry" />
        </mxCell>
        <mxCell id="XEDrrpGrRJbFMYsRgZFV-5" value="" style="edgeStyle=orthogonalEdgeStyle;rounded=0;orthogonalLoop=1;jettySize=auto;html=1;" edge="1" parent="1" source="XEDrrpGrRJbFMYsRgZFV-7" target="XEDrrpGrRJbFMYsRgZFV-10">
          <mxGeometry relative="1" as="geometry" />
        </mxCell>
        <mxCell id="XEDrrpGrRJbFMYsRgZFV-6" value="" style="edgeStyle=orthogonalEdgeStyle;rounded=0;orthogonalLoop=1;jettySize=auto;html=1;" edge="1" parent="1" source="XEDrrpGrRJbFMYsRgZFV-7" target="XEDrrpGrRJbFMYsRgZFV-21">
          <mxGeometry relative="1" as="geometry" />
        </mxCell>
        <mxCell id="XEDrrpGrRJbFMYsRgZFV-7" value="Is x &amp;lt; y?" style="rhombus;whiteSpace=wrap;html=1;strokeWidth=2;" vertex="1" parent="1">
          <mxGeometry x="60" y="220" width="80" height="80" as="geometry" />
        </mxCell>
        <mxCell id="XEDrrpGrRJbFMYsRgZFV-8" value="" style="edgeStyle=orthogonalEdgeStyle;rounded=0;orthogonalLoop=1;jettySize=auto;html=1;" edge="1" parent="1" source="XEDrrpGrRJbFMYsRgZFV-10" target="XEDrrpGrRJbFMYsRgZFV-14">
          <mxGeometry relative="1" as="geometry" />
        </mxCell>
        <mxCell id="XEDrrpGrRJbFMYsRgZFV-9" value="" style="edgeStyle=orthogonalEdgeStyle;rounded=0;orthogonalLoop=1;jettySize=auto;html=1;" edge="1" parent="1" source="XEDrrpGrRJbFMYsRgZFV-10" target="XEDrrpGrRJbFMYsRgZFV-37">
          <mxGeometry relative="1" as="geometry" />
        </mxCell>
        <mxCell id="XEDrrpGrRJbFMYsRgZFV-10" value="Is x &amp;lt; z?" style="rhombus;whiteSpace=wrap;html=1;strokeWidth=2;" vertex="1" parent="1">
          <mxGeometry x="330" y="220" width="80" height="80" as="geometry" />
        </mxCell>
        <mxCell id="XEDrrpGrRJbFMYsRgZFV-11" value="True" style="text;html=1;align=center;verticalAlign=middle;resizable=0;points=[];autosize=1;strokeColor=none;fillColor=none;" vertex="1" parent="1">
          <mxGeometry x="150" y="235" width="50" height="30" as="geometry" />
        </mxCell>
        <mxCell id="XEDrrpGrRJbFMYsRgZFV-12" value="" style="edgeStyle=orthogonalEdgeStyle;rounded=0;orthogonalLoop=1;jettySize=auto;html=1;" edge="1" parent="1" source="XEDrrpGrRJbFMYsRgZFV-14">
          <mxGeometry relative="1" as="geometry">
            <mxPoint x="630" y="260" as="targetPoint" />
          </mxGeometry>
        </mxCell>
        <mxCell id="XEDrrpGrRJbFMYsRgZFV-13" value="" style="edgeStyle=orthogonalEdgeStyle;rounded=0;orthogonalLoop=1;jettySize=auto;html=1;" edge="1" parent="1" source="XEDrrpGrRJbFMYsRgZFV-14" target="XEDrrpGrRJbFMYsRgZFV-40">
          <mxGeometry relative="1" as="geometry" />
        </mxCell>
        <mxCell id="XEDrrpGrRJbFMYsRgZFV-14" value="Is y &amp;lt; z?" style="rhombus;whiteSpace=wrap;html=1;strokeWidth=2;" vertex="1" parent="1">
          <mxGeometry x="490" y="220" width="80" height="80" as="geometry" />
        </mxCell>
        <mxCell id="XEDrrpGrRJbFMYsRgZFV-15" style="edgeStyle=orthogonalEdgeStyle;rounded=0;orthogonalLoop=1;jettySize=auto;html=1;entryX=1;entryY=0.5;entryDx=0;entryDy=0;entryPerimeter=0;" edge="1" parent="1" source="XEDrrpGrRJbFMYsRgZFV-16" target="XEDrrpGrRJbFMYsRgZFV-41">
          <mxGeometry relative="1" as="geometry">
            <Array as="points">
              <mxPoint x="810" y="260" />
              <mxPoint x="810" y="725" />
            </Array>
          </mxGeometry>
        </mxCell>
        <mxCell id="XEDrrpGrRJbFMYsRgZFV-16" value="Print x, y, z" style="whiteSpace=wrap;html=1;strokeWidth=2;" vertex="1" parent="1">
          <mxGeometry x="630" y="230" width="120" height="60" as="geometry" />
        </mxCell>
        <mxCell id="XEDrrpGrRJbFMYsRgZFV-17" value="True" style="text;html=1;align=center;verticalAlign=middle;resizable=0;points=[];autosize=1;strokeColor=none;fillColor=none;" vertex="1" parent="1">
          <mxGeometry x="415" y="236" width="50" height="30" as="geometry" />
        </mxCell>
        <mxCell id="XEDrrpGrRJbFMYsRgZFV-18" value="True" style="text;html=1;align=center;verticalAlign=middle;resizable=0;points=[];autosize=1;strokeColor=none;fillColor=none;" vertex="1" parent="1">
          <mxGeometry x="575" y="238" width="50" height="30" as="geometry" />
        </mxCell>
        <mxCell id="XEDrrpGrRJbFMYsRgZFV-19" value="" style="edgeStyle=orthogonalEdgeStyle;rounded=0;orthogonalLoop=1;jettySize=auto;html=1;" edge="1" parent="1" source="XEDrrpGrRJbFMYsRgZFV-21" target="XEDrrpGrRJbFMYsRgZFV-25">
          <mxGeometry relative="1" as="geometry" />
        </mxCell>
        <mxCell id="XEDrrpGrRJbFMYsRgZFV-20" value="" style="edgeStyle=orthogonalEdgeStyle;rounded=0;orthogonalLoop=1;jettySize=auto;html=1;" edge="1" parent="1" source="XEDrrpGrRJbFMYsRgZFV-21" target="XEDrrpGrRJbFMYsRgZFV-31">
          <mxGeometry relative="1" as="geometry" />
        </mxCell>
        <mxCell id="XEDrrpGrRJbFMYsRgZFV-21" value="Is y &amp;lt; z?" style="rhombus;whiteSpace=wrap;html=1;strokeWidth=2;" vertex="1" parent="1">
          <mxGeometry x="60" y="343" width="80" height="80" as="geometry" />
        </mxCell>
        <mxCell id="XEDrrpGrRJbFMYsRgZFV-22" value="False" style="text;html=1;align=center;verticalAlign=middle;resizable=0;points=[];autosize=1;strokeColor=none;fillColor=none;" vertex="1" parent="1">
          <mxGeometry x="100" y="300" width="50" height="30" as="geometry" />
        </mxCell>
        <mxCell id="XEDrrpGrRJbFMYsRgZFV-23" value="" style="edgeStyle=orthogonalEdgeStyle;rounded=0;orthogonalLoop=1;jettySize=auto;html=1;" edge="1" parent="1" source="XEDrrpGrRJbFMYsRgZFV-25" target="XEDrrpGrRJbFMYsRgZFV-27">
          <mxGeometry relative="1" as="geometry" />
        </mxCell>
        <mxCell id="XEDrrpGrRJbFMYsRgZFV-24" value="" style="edgeStyle=orthogonalEdgeStyle;rounded=0;orthogonalLoop=1;jettySize=auto;html=1;" edge="1" parent="1" source="XEDrrpGrRJbFMYsRgZFV-25" target="XEDrrpGrRJbFMYsRgZFV-34">
          <mxGeometry relative="1" as="geometry" />
        </mxCell>
        <mxCell id="XEDrrpGrRJbFMYsRgZFV-25" value="Is x &amp;lt; z" style="rhombus;whiteSpace=wrap;html=1;strokeWidth=2;" vertex="1" parent="1">
          <mxGeometry x="210" y="343" width="80" height="80" as="geometry" />
        </mxCell>
        <mxCell id="XEDrrpGrRJbFMYsRgZFV-26" style="edgeStyle=orthogonalEdgeStyle;rounded=0;orthogonalLoop=1;jettySize=auto;html=1;entryX=0.987;entryY=0.3;entryDx=0;entryDy=0;entryPerimeter=0;" edge="1" parent="1" source="XEDrrpGrRJbFMYsRgZFV-27" target="XEDrrpGrRJbFMYsRgZFV-41">
          <mxGeometry relative="1" as="geometry">
            <Array as="points">
              <mxPoint x="700" y="707" />
            </Array>
          </mxGeometry>
        </mxCell>
        <mxCell id="XEDrrpGrRJbFMYsRgZFV-27" value="Print y, x, z" style="whiteSpace=wrap;html=1;strokeWidth=2;" vertex="1" parent="1">
          <mxGeometry x="630" y="353" width="120" height="60" as="geometry" />
        </mxCell>
        <mxCell id="XEDrrpGrRJbFMYsRgZFV-28" value="True" style="text;html=1;align=center;verticalAlign=middle;resizable=0;points=[];autosize=1;strokeColor=none;fillColor=none;" vertex="1" parent="1">
          <mxGeometry x="145" y="355" width="50" height="30" as="geometry" />
        </mxCell>
        <mxCell id="XEDrrpGrRJbFMYsRgZFV-29" value="True" style="text;html=1;align=center;verticalAlign=middle;resizable=0;points=[];autosize=1;strokeColor=none;fillColor=none;" vertex="1" parent="1">
          <mxGeometry x="295" y="355" width="50" height="30" as="geometry" />
        </mxCell>
        <mxCell id="XEDrrpGrRJbFMYsRgZFV-30" style="edgeStyle=orthogonalEdgeStyle;rounded=0;orthogonalLoop=1;jettySize=auto;html=1;" edge="1" parent="1" source="XEDrrpGrRJbFMYsRgZFV-31" target="XEDrrpGrRJbFMYsRgZFV-41">
          <mxGeometry relative="1" as="geometry">
            <mxPoint x="110" y="560" as="targetPoint" />
            <Array as="points">
              <mxPoint x="110" y="740" />
            </Array>
          </mxGeometry>
        </mxCell>
        <mxCell id="XEDrrpGrRJbFMYsRgZFV-31" value="Print z, y, x" style="whiteSpace=wrap;html=1;strokeWidth=2;" vertex="1" parent="1">
          <mxGeometry x="40" y="480" width="120" height="60" as="geometry" />
        </mxCell>
        <mxCell id="XEDrrpGrRJbFMYsRgZFV-32" value="False" style="text;html=1;align=center;verticalAlign=middle;resizable=0;points=[];autosize=1;strokeColor=none;fillColor=none;rounded=0;" vertex="1" parent="1">
          <mxGeometry x="105" y="435" width="50" height="30" as="geometry" />
        </mxCell>
        <mxCell id="XEDrrpGrRJbFMYsRgZFV-33" style="edgeStyle=orthogonalEdgeStyle;rounded=0;orthogonalLoop=1;jettySize=auto;html=1;entryX=0;entryY=0.5;entryDx=0;entryDy=0;entryPerimeter=0;" edge="1" parent="1" source="XEDrrpGrRJbFMYsRgZFV-34" target="XEDrrpGrRJbFMYsRgZFV-41">
          <mxGeometry relative="1" as="geometry">
            <Array as="points">
              <mxPoint x="250" y="725" />
            </Array>
          </mxGeometry>
        </mxCell>
        <mxCell id="XEDrrpGrRJbFMYsRgZFV-34" value="Print y, z, x" style="whiteSpace=wrap;html=1;strokeWidth=2;" vertex="1" parent="1">
          <mxGeometry x="190" y="480" width="120" height="60" as="geometry" />
        </mxCell>
        <mxCell id="XEDrrpGrRJbFMYsRgZFV-35" value="False" style="text;html=1;align=center;verticalAlign=middle;resizable=0;points=[];autosize=1;strokeColor=none;fillColor=none;" vertex="1" parent="1">
          <mxGeometry x="245" y="425" width="50" height="30" as="geometry" />
        </mxCell>
        <mxCell id="XEDrrpGrRJbFMYsRgZFV-36" style="edgeStyle=orthogonalEdgeStyle;rounded=0;orthogonalLoop=1;jettySize=auto;html=1;" edge="1" parent="1" source="XEDrrpGrRJbFMYsRgZFV-37" target="XEDrrpGrRJbFMYsRgZFV-41">
          <mxGeometry relative="1" as="geometry" />
        </mxCell>
        <mxCell id="XEDrrpGrRJbFMYsRgZFV-37" value="Print z, x, y" style="whiteSpace=wrap;html=1;strokeWidth=2;" vertex="1" parent="1">
          <mxGeometry x="340" y="480" width="120" height="60" as="geometry" />
        </mxCell>
        <mxCell id="XEDrrpGrRJbFMYsRgZFV-38" value="False" style="text;html=1;align=center;verticalAlign=middle;resizable=0;points=[];autosize=1;strokeColor=none;fillColor=none;" vertex="1" parent="1">
          <mxGeometry x="400" y="423" width="50" height="30" as="geometry" />
        </mxCell>
        <mxCell id="XEDrrpGrRJbFMYsRgZFV-39" style="edgeStyle=orthogonalEdgeStyle;rounded=0;orthogonalLoop=1;jettySize=auto;html=1;entryX=0.911;entryY=0.222;entryDx=0;entryDy=0;entryPerimeter=0;" edge="1" parent="1" source="XEDrrpGrRJbFMYsRgZFV-40" target="XEDrrpGrRJbFMYsRgZFV-41">
          <mxGeometry relative="1" as="geometry">
            <Array as="points">
              <mxPoint x="560" y="660" />
              <mxPoint x="570" y="660" />
            </Array>
          </mxGeometry>
        </mxCell>
        <mxCell id="XEDrrpGrRJbFMYsRgZFV-40" value="Print x, z, y" style="whiteSpace=wrap;html=1;strokeWidth=2;" vertex="1" parent="1">
          <mxGeometry x="500" y="480" width="120" height="60" as="geometry" />
        </mxCell>
        <mxCell id="XEDrrpGrRJbFMYsRgZFV-41" value="End" style="strokeWidth=2;html=1;shape=mxgraph.flowchart.terminator;whiteSpace=wrap;rounded=0;" vertex="1" parent="1">
          <mxGeometry x="365" y="680" width="225" height="90" as="geometry" />
        </mxCell>
        <mxCell id="XEDrrpGrRJbFMYsRgZFV-42" value="False" style="text;html=1;align=center;verticalAlign=middle;resizable=0;points=[];autosize=1;strokeColor=none;fillColor=none;" vertex="1" parent="1">
          <mxGeometry x="560" y="423" width="50" height="30" as="geometry" />
        </mxCell>
      </root>
    </mxGraphModel>
  </diagram>
</mxfile>
